# xmcd
#
# Track frame offsets:
#	150
#	22802
#	45982
#	61752
#	84935
#	113872
#	131620
#	161092
#	183875
#	202415
#
# Disc length: 2964 seconds
#
# Revision: 3
# Processed by: cddbd v1.4PL0 Copyright (c) Steve Scherf et al.
# Submitted via: EasyCDDAExtractor 5.0.2.1
#
DISCID=7a0b920a
DTITLE=Fleetwood Mac - Live - Early Recording - CD 1
DYEAR=1968
DGENRE=Blues
TTITLE0=Got To Move
TTITLE1=I Held My Baby Last Night
TTITLE2=My Baby's Sweet
TTITLE3=My Baby's A Good Un
TTITLE4=Don't Know Which Way To Go
TTITLE5=Buzz Me
TTITLE6=The Worried Dream
TTITLE7=The World Keeps On Turning
TTITLE8=How Blue Can You Get
TTITLE9=Bleeding Heart
EXTD=YEAR: 1968 ID3G: 0
EXTT0=
EXTT1=
EXTT2=
EXTT3=
EXTT4=
EXTT5=
EXTT6=
EXTT7=
EXTT8=
EXTT9=
PLAYORDER=
